<svg width="33" height="28" viewBox="0 0 33 28" fill="none" xmlns="http://www.w3.org/2000/svg">
<path d="M30.1132 13.1684V3.54269C30.1132 3.23833 29.9113 2.97054 29.6181 2.88664L20.0658 0.158426C19.9415 0.12345 19.8122 0.123961 19.6913 0.158426L10.3263 2.83319L0.961204 0.158426C0.756 0.100494 0.533397 0.141098 0.362862 0.269685C0.192263 0.398912 0.0916443 0.600713 0.0916443 0.814536V21.276C0.0916443 21.5804 0.293522 21.8482 0.586745 21.9321L10.139 24.6603C10.2003 24.6776 10.2637 24.6862 10.3263 24.6862C10.3897 24.6862 10.4527 24.6776 10.5135 24.6603L19.8786 21.9855L24.132 23.2002C25.3169 25.1343 26.5862 26.813 26.8423 27.1473C26.9716 27.3158 27.1715 27.4144 27.384 27.4144C27.5966 27.4144 27.7965 27.3158 27.9258 27.1473C28.4288 26.4906 32.8425 20.6532 32.8425 17.8657C32.8425 15.8553 31.7368 14.115 30.1132 13.1684ZM9.64395 23.0997L1.45624 20.7618V1.71906L9.64395 4.05698V23.0997ZM19.1963 20.7613L11.0086 23.0998V4.05742L19.1963 1.71893V20.7613ZM20.5609 20.7618V1.71906L28.7486 4.05698V12.6032C28.3099 12.4892 27.8579 12.4094 27.384 12.4094C24.3743 12.4094 21.9256 14.8572 21.9256 17.8658C21.9256 18.8282 22.4562 20.1547 23.1658 21.5054L20.5609 20.7618ZM27.384 25.5908C25.8841 23.528 23.2902 19.6022 23.2902 17.8657C23.2902 15.6091 25.1265 13.7734 27.384 13.7734C29.6415 13.7734 31.4779 15.6091 31.4779 17.8657C31.4779 19.6022 28.8839 23.528 27.384 25.5908Z" fill="url(#paint0_linear_2_457)"/>
<path d="M27.384 16.5016C26.6318 16.5016 26.0194 17.1137 26.0194 17.8657C26.0194 18.6177 26.6318 19.2298 27.384 19.2298C28.1363 19.2298 28.7486 18.6177 28.7486 17.8657C28.7486 17.1137 28.1363 16.5016 27.384 16.5016ZM27.3847 17.8657C27.3847 17.8657 27.384 17.8651 27.384 17.8644L28.0663 17.8657H27.3847Z" fill="url(#paint1_linear_2_457)"/>
<defs>
<linearGradient id="paint0_linear_2_457" x1="16.4671" y1="0.132385" x2="16.4671" y2="27.4144" gradientUnits="userSpaceOnUse">
<stop offset="0.171875" stop-color="#A4A7E2"/>
<stop offset="0.364583" stop-color="white"/>
<stop offset="0.604167" stop-color="#A4A7E2"/>
<stop offset="0.901042" stop-color="#A4A7E2"/>
<stop offset="1" stop-color="#A4A7E2"/>
</linearGradient>
<linearGradient id="paint1_linear_2_457" x1="27.384" y1="16.5016" x2="27.384" y2="19.2298" gradientUnits="userSpaceOnUse">
<stop offset="0.171875" stop-color="#A4A7E2"/>
<stop offset="0.364583" stop-color="white"/>
<stop offset="0.604167" stop-color="#A4A7E2"/>
<stop offset="0.901042" stop-color="#A4A7E2"/>
<stop offset="1" stop-color="#A4A7E2"/>
</linearGradient>
</defs>
</svg>
